<svg width="21" height="24" viewBox="0 0 21 24" fill="none" xmlns="http://www.w3.org/2000/svg">
<path d="M9.275 19.3025L5.13333 15.22L6.825 13.5525L9.275 15.9675L14.175 11.1375L15.8667 12.805L9.275 19.3025ZM2.33333 23.5C1.69167 23.5 1.14217 23.275 0.684833 22.8249C0.228278 22.3741 0 21.8325 0 21.2V5.1C0 4.4675 0.228278 3.92623 0.684833 3.4762C1.14217 3.0254 1.69167 2.8 2.33333 2.8H3.5V0.5H5.83333V2.8H15.1667V0.5H17.5V2.8H18.6667C19.3083 2.8 19.8578 3.0254 20.3152 3.4762C20.7717 3.92623 21 4.4675 21 5.1V21.2C21 21.8325 20.7717 22.3741 20.3152 22.8249C19.8578 23.275 19.3083 23.5 18.6667 23.5H2.33333ZM2.33333 21.2H18.6667V9.7H2.33333V21.2ZM2.33333 7.4H18.6667V5.1H2.33333V7.4Z" fill="black"/>
</svg>
