<svg width="22" height="20" viewBox="0 0 22 20" fill="none" xmlns="http://www.w3.org/2000/svg">
<path d="M11.11 20C10.7983 20 10.5373 19.8933 10.3268 19.68C10.1156 19.4674 10.01 19.2037 10.01 18.8889C10.01 18.7593 10.0375 18.6248 10.0925 18.4856C10.1475 18.347 10.23 18.2222 10.34 18.1111L15.4275 12.9722L14.63 12.1667L9.57 17.3056C9.46 17.4167 9.34083 17.5 9.2125 17.5556C9.08417 17.6111 8.94667 17.6389 8.8 17.6389C8.48833 17.6389 8.22727 17.5322 8.0168 17.3189C7.8056 17.1063 7.7 16.8426 7.7 16.5278C7.7 16.3426 7.7275 16.1896 7.7825 16.0689C7.8375 15.9489 7.91083 15.8426 8.0025 15.75L13.09 10.6111L12.32 9.83333L7.2325 14.9444C7.1225 15.0556 7.00333 15.1389 6.875 15.1944C6.74667 15.25 6.6 15.2778 6.435 15.2778C6.14167 15.2778 5.885 15.1667 5.665 14.9444C5.445 14.7222 5.335 14.463 5.335 14.1667C5.335 14.0185 5.3625 13.8796 5.4175 13.75C5.4725 13.6204 5.555 13.5 5.665 13.3889L10.7525 8.25L9.955 7.47222L4.895 12.6111C4.80333 12.7037 4.69333 12.7778 4.565 12.8333C4.43667 12.8889 4.28083 12.9167 4.0975 12.9167C3.78583 12.9167 3.52477 12.81 3.3143 12.5967C3.1031 12.3841 2.9975 12.1204 2.9975 11.8056C2.9975 11.6574 3.025 11.5185 3.08 11.3889C3.135 11.2593 3.2175 11.1389 3.3275 11.0278L9.46 4.83333L13.585 9.02778C13.7867 9.23148 14.025 9.39333 14.3 9.51333C14.575 9.63408 14.85 9.69445 15.125 9.69445C15.7117 9.69445 16.225 9.48593 16.665 9.06889C17.105 8.65259 17.325 8.12037 17.325 7.47222C17.325 7.21296 17.2792 6.94444 17.1875 6.66667C17.0958 6.38889 16.9308 6.12963 16.6925 5.88889L11.77 0.916667C12.0817 0.62037 12.43 0.393333 12.815 0.235555C13.2 0.0785184 13.585 0 13.97 0C14.4467 0 14.8867 0.0785184 15.29 0.235555C15.6933 0.393333 16.06 0.638889 16.39 0.972222L21.0375 5.69444C21.3675 6.02778 21.6106 6.39815 21.7668 6.80556C21.9223 7.21296 22 7.68518 22 8.22222C22 8.59259 21.9175 8.96741 21.7525 9.34667C21.5875 9.72667 21.3492 10.0741 21.0375 10.3889L11.88 19.6667C11.7333 19.8148 11.605 19.9074 11.495 19.9444C11.385 19.9815 11.2567 20 11.11 20ZM1.6775 11.1111L0.9625 10.3889C0.650833 10.0926 0.4125 9.74074 0.2475 9.33333C0.0824999 8.92593 0 8.5 0 8.05556C0 7.57407 0.0916667 7.12963 0.275 6.72222C0.458333 6.31482 0.6875 5.97222 0.9625 5.69444L5.61 0.972222C5.90333 0.675926 6.25167 0.43963 6.655 0.263333C7.05833 0.0877778 7.4525 0 7.8375 0C8.3325 0 8.7725 0.0696296 9.1575 0.208889C9.5425 0.347407 9.91833 0.601852 10.285 0.972222L15.9225 6.66667C16.0325 6.77778 16.115 6.89815 16.17 7.02778C16.225 7.15741 16.2525 7.2963 16.2525 7.44444C16.2525 7.74074 16.1425 8 15.9225 8.22222C15.7025 8.44444 15.4458 8.55556 15.1525 8.55556C14.9875 8.55556 14.85 8.53222 14.74 8.48556C14.63 8.43963 14.5108 8.35185 14.3825 8.22222L9.4325 3.27778L1.6775 11.1111Z" fill="black"/>
</svg>
