<svg width="21" height="24" viewBox="0 0 21 24" fill="none" xmlns="http://www.w3.org/2000/svg">
<path d="M19.25 6.21499H16.8333C17.3988 5.35943 17.6166 4.31466 17.441 3.29955C17.2655 2.28443 16.7103 1.37771 15.8917 0.769319C15.0731 0.16093 14.0546 -0.10193 13.0495 0.0358006C12.0445 0.173531 11.1308 0.701167 10.5 1.50818C9.86918 0.701167 8.95555 0.173531 7.95049 0.0358006C6.94543 -0.10193 5.92692 0.16093 5.1083 0.769319C4.28968 1.37771 3.73447 2.28443 3.55895 3.29955C3.38344 4.31466 3.60125 5.35943 4.16675 6.21499H1.75C1.28601 6.21546 0.841163 6.40299 0.513075 6.73642C0.184987 7.06985 0.000463292 7.52194 0 7.99349V11.5505C0.000463292 12.022 0.184987 12.4741 0.513075 12.8076C0.841163 13.141 1.28601 13.3285 1.75 13.329V22.2215C1.75046 22.693 1.93499 23.1451 2.26307 23.4786C2.59116 23.812 3.03601 23.9995 3.5 24H17.5C17.964 23.9995 18.4088 23.812 18.7369 23.4786C19.065 23.1451 19.2495 22.693 19.25 22.2215V13.329C19.714 13.3285 20.1588 13.141 20.4869 12.8076C20.815 12.4741 20.9995 12.022 21 11.5505V7.99349C20.9995 7.52194 20.815 7.06985 20.4869 6.73642C20.1588 6.40299 19.714 6.21546 19.25 6.21499ZM11.375 3.99186C11.375 3.55217 11.5033 3.12235 11.7437 2.75676C11.984 2.39117 12.3257 2.10622 12.7254 1.93796C13.1251 1.7697 13.5649 1.72567 13.9893 1.81145C14.4136 1.89723 14.8034 2.10896 15.1093 2.41987C15.4152 2.73078 15.6236 3.12691 15.708 3.55815C15.7924 3.98939 15.7491 4.43639 15.5835 4.84262C15.4179 5.24884 15.1375 5.59604 14.7778 5.84032C14.4181 6.0846 13.9951 6.21499 13.5625 6.21499H11.375V3.99186ZM7.4375 1.76873C8.01745 1.76944 8.57344 2.00389 8.98353 2.42065C9.39361 2.83742 9.62431 3.40247 9.625 3.99186V6.21499H7.4375C6.85734 6.21499 6.30094 5.98077 5.8907 5.56385C5.48047 5.14693 5.25 4.58147 5.25 3.99186C5.25 3.40225 5.48047 2.83679 5.8907 2.41987C6.30094 2.00296 6.85734 1.76873 7.4375 1.76873ZM1.75 7.99349H9.625V11.5505H1.75V7.99349ZM3.5 13.329H9.625V22.2215H3.5V13.329ZM17.5009 22.2215H11.375V13.329H17.5L17.5009 22.2215ZM11.375 11.5505V7.99349H19.25L19.2509 11.5505H11.375Z" fill="black"/>
</svg>
